<svg width="56" height="56" viewBox="0 0 56 56" fill="none" xmlns="http://www.w3.org/2000/svg">
<path fill-rule="evenodd" clip-rule="evenodd" d="M46.7796 28.8204C47.3045 29.3455 47.5994 30.0575 47.5994 30.8C47.5994 31.5425 47.3045 32.2545 46.7796 32.7796L29.9796 49.5796C29.4545 50.1045 28.7425 50.3994 28 50.3994C27.2575 50.3994 26.5455 50.1045 26.0204 49.5796L9.22041 32.7796C8.95298 32.5213 8.73967 32.2124 8.59292 31.8707C8.44618 31.5291 8.36894 31.1617 8.36571 30.7899C8.36248 30.4181 8.43332 30.0494 8.57411 29.7053C8.71489 29.3612 8.9228 29.0486 9.1857 28.7857C9.4486 28.5228 9.76123 28.3149 10.1053 28.1741C10.4494 28.0333 10.8181 27.9625 11.1899 27.9657C11.5617 27.9689 11.9291 28.0462 12.2707 28.1929C12.6124 28.3397 12.9213 28.553 13.1796 28.8204L25.2 40.8408V8.40001C25.2 7.6574 25.495 6.94521 26.0201 6.42011C26.5452 5.89501 27.2574 5.60001 28 5.60001C28.7426 5.60001 29.4548 5.89501 29.9799 6.42011C30.505 6.94521 30.8 7.6574 30.8 8.40001V40.8408L42.8204 28.8204C43.3455 28.2955 44.0575 28.0006 44.8 28.0006C45.5425 28.0006 46.2545 28.2955 46.7796 28.8204Z" fill="black"/>
</svg>
