<svg width="32" height="32" viewBox="0 0 32 32" fill="none" xmlns="http://www.w3.org/2000/svg">
<path d="M19.519 2.44556C21.0195 2.44804 21.7799 2.45598 22.437 2.47554L22.6958 2.484C22.9947 2.49462 23.2897 2.50796 23.6453 2.52462C25.0641 2.59018 26.0319 2.81462 26.8819 3.14462C27.7607 3.48352 28.503 3.94129 29.2441 4.68241C29.9841 5.42352 30.4419 6.16796 30.7819 7.04462C31.1107 7.89352 31.3353 8.86241 31.4019 10.2813C31.4178 10.6369 31.4306 10.9318 31.4411 11.2308L31.4495 11.4896C31.469 12.1465 31.4779 12.9071 31.4807 14.4076L31.4818 15.4018C31.4819 15.5233 31.4819 15.6486 31.4819 15.7779L31.4818 16.1541L31.481 17.1483C31.4785 18.6488 31.4706 19.4094 31.451 20.0663L31.4424 20.3251C31.4319 20.6242 31.4186 20.9191 31.4019 21.2746C31.3363 22.6935 31.1107 23.6612 30.7819 24.5112C30.443 25.3902 29.9841 26.1324 29.2441 26.8735C28.503 27.6135 27.7574 28.0713 26.8819 28.4113C26.0319 28.7402 25.0641 28.9646 23.6453 29.0312C23.2897 29.0471 22.9947 29.0601 22.6958 29.0704L22.437 29.0788C21.7799 29.0984 21.0195 29.1073 19.519 29.1102L18.5247 29.1112C18.4033 29.1112 18.2779 29.1112 18.1486 29.1112H17.7725L16.7782 29.1103C15.2777 29.1079 14.5171 29.0999 13.8601 29.0803L13.6014 29.0719C13.3024 29.0613 13.0074 29.0479 12.6519 29.0312C11.233 28.9658 10.2663 28.7402 9.41523 28.4113C8.53744 28.0725 7.79411 27.6135 7.053 26.8735C6.3119 26.1324 5.85523 25.3868 5.51523 24.5112C5.18523 23.6612 4.9619 22.6935 4.89523 21.2746C4.87939 20.9191 4.86647 20.6242 4.856 20.3251L4.84762 20.0663C4.82811 19.4094 4.81922 18.6488 4.81634 17.1483L4.81616 14.4076C4.81864 12.9071 4.82658 12.1465 4.84614 11.4896L4.8546 11.2308C4.86523 10.9318 4.87856 10.6369 4.89523 10.2813C4.96078 8.86129 5.18523 7.89462 5.51523 7.04462C5.85411 6.16685 6.3119 5.42352 7.053 4.68241C7.79411 3.94129 8.53856 3.48462 9.41523 3.14462C10.2652 2.81462 11.2319 2.59129 12.6519 2.52462C13.0074 2.5088 13.3024 2.49588 13.6014 2.48541L13.8601 2.47702C14.5171 2.4575 15.2777 2.44861 16.7782 2.44573L19.519 2.44556ZM18.1486 9.11129C14.4647 9.11129 11.4819 12.0973 11.4819 15.7779C11.4819 19.4618 14.4679 22.4446 18.1486 22.4446C21.8325 22.4446 24.8153 19.4586 24.8153 15.7779C24.8153 12.0941 21.8291 9.11129 18.1486 9.11129ZM18.1486 11.778C20.3578 11.778 22.1486 13.5682 22.1486 15.7779C22.1486 17.9871 20.3583 19.7779 18.1486 19.7779C15.9394 19.7779 14.1486 17.9878 14.1486 15.7779C14.1486 13.5687 15.9387 11.778 18.1486 11.778ZM25.1486 7.11129C24.2295 7.11129 23.4819 7.85784 23.4819 8.77682C23.4819 9.69582 24.2285 10.4435 25.1486 10.4435C26.0675 10.4435 26.8153 9.69698 26.8153 8.77682C26.8153 7.85784 26.0663 7.11014 25.1486 7.11129Z" fill="black"/>
</svg>
