<svg width="32" height="32" viewBox="0 0 32 32" fill="none" xmlns="http://www.w3.org/2000/svg">
<g clip-path="url(#clip0_2024_62)">
<path d="M29.1482 1.77783H7.14819C6.35254 1.77783 5.58948 2.0939 5.02687 2.65651C4.46426 3.21912 4.14819 3.98218 4.14819 4.77783V26.7778C4.14819 27.5735 4.46426 28.3365 5.02687 28.8992C5.58948 29.4618 6.35254 29.7778 7.14819 29.7778H15.7263V20.2585H11.7888V15.7778H15.7263V12.3628C15.7263 8.47846 18.0388 6.33283 21.5807 6.33283C23.2769 6.33283 25.0507 6.63533 25.0507 6.63533V10.4478H23.0963C21.1707 10.4478 20.5701 11.6428 20.5701 12.8685V15.7778H24.8688L24.1813 20.2585H20.5701V29.7778H29.1482C29.9438 29.7778 30.7069 29.4618 31.2695 28.8992C31.8321 28.3365 32.1482 27.5735 32.1482 26.7778V4.77783C32.1482 3.98218 31.8321 3.21912 31.2695 2.65651C30.7069 2.0939 29.9438 1.77783 29.1482 1.77783Z" fill="black"/>
</g>
<defs>
<clipPath id="clip0_2024_62">
<rect width="32" height="32" fill="white"/>
</clipPath>
</defs>
</svg>
