<svg width="30" height="27" viewBox="0 0 30 27" fill="none" xmlns="http://www.w3.org/2000/svg">
<path d="M28.8588 7.26008C28.8791 7.54433 28.8791 7.82865 28.8791 8.1129C28.8791 16.7829 22.2802 26.7728 10.2193 26.7728C6.50351 26.7728 3.05176 25.6966 0.148193 23.8286C0.676131 23.8895 1.18369 23.9098 1.73194 23.9098C4.79788 23.9098 7.62026 22.8743 9.87407 21.1078C6.99082 21.0469 4.57457 19.1586 3.74207 16.5596C4.14819 16.6205 4.55426 16.6611 4.98069 16.6611C5.56951 16.6611 6.15838 16.5798 6.70657 16.4378C3.70151 15.8286 1.44763 13.189 1.44763 10.0012V9.92002C2.32069 10.4073 3.33601 10.7119 4.41207 10.7525C2.64557 9.57477 1.48826 7.56465 1.48826 5.29052C1.48826 4.07227 1.81307 2.95552 2.38163 1.9809C5.61007 5.96058 10.4629 8.55952 15.9044 8.84383C15.8029 8.35652 15.742 7.84896 15.742 7.34133C15.742 3.72708 18.6659 0.782959 22.3004 0.782959C24.1887 0.782959 25.8943 1.57483 27.0923 2.85402C28.5744 2.56977 29.9958 2.02152 31.2547 1.27027C30.7673 2.79315 29.7318 4.07233 28.3714 4.88446C29.6913 4.7424 30.9704 4.37683 32.1481 3.86927C31.2548 5.16871 30.138 6.32602 28.8588 7.26008Z" fill="black"/>
</svg>
